HIERARCHY
ROOT Hips
{
	OFFSET 0.00000 0.00000 0.00000
	CHANNELS 6 Xposition Yposition Zposition Yrotation Zrotation Xrotation 
	JOINT Lumbar
	{
		OFFSET 0 0 0
		CHANNELS 3 Zrotation Xrotation Yrotation
		JOINT Neck
		{
			OFFSET 0.00 0.2701 0.00
			CHANNELS 3 Zrotation Xrotation Yrotation
			End Site
			{
				OFFSET 0.00 0.1379 0.00
			}
		}
		JOINT RightShoulder
		{
			OFFSET 0.0119 0.2289 0.1181
			CHANNELS 3 Zrotation Xrotation Yrotation
			JOINT RightElbow
			{
				OFFSET 0.00 -0.1475 0.00
				CHANNELS 2 Zrotation Yrotation
				JOINT RightWrist
				{
					OFFSET 0.00 -0.1605 0.00
					CHANNELS 2 Zrotation Xrotation
					End Site
					{
						OFFSET 0.0040 -0.1068 0.0006
					}
				}
			}
		}
		JOINT LeftShoulder
		{
			OFFSET 0.0119 0.2289 -0.1181
			CHANNELS 3 Zrotation Xrotation Yrotation
			JOINT LeftElbow
			{
				OFFSET 0.00 -0.1475 0.00
				CHANNELS 2 Zrotation Yrotation
				JOINT LeftWrist
				{
					OFFSET 0.00 -0.1605 0.00
					CHANNELS 2 Zrotation Xrotation
					End Site
					{
						OFFSET 0.0040 -0.1068 -0.0006
					}
				}
			}
		}
	}
	JOINT RightHip
	{
		OFFSET 0.0316 -0.0424 0.0458
		CHANNELS 3 Zrotation Xrotation Yrotation
		JOINT RightKnee
		{
			OFFSET 0.00 -0.2438 0.00
			CHANNELS 1 Zrotation
			JOINT RightAnkle
			{
				OFFSET 0.00 -0.2449 0.00
				CHANNELS 3 Zrotation Xrotation Yrotation
				End Site
				{
					OFFSET 0.1237 -0.0542 0.0051
				}
			}
		}
	}
	JOINT LeftHip
	{
		OFFSET 0.0316 -0.0424 -0.0458
		CHANNELS 3 Zrotation Xrotation Yrotation
		JOINT LeftKnee
		{
			OFFSET 0.00 -0.2438 0.00
			CHANNELS 1 Zrotation
			JOINT LeftAnkle
			{
				OFFSET 0.00 -0.2449 0.00
				CHANNELS 3 Zrotation Xrotation Yrotation
				End Site
				{
					OFFSET 0.1237 -0.0542 -0.0051
				}
			}
		}
	}
}
MOTION
Frames: 14
Frame Time: 0.02
0.29088 0.35756 -0.00567 182.94173 0 -7.8037 -4.3188 9.21475 -5.43081 -50.85684 6.95757 6.50168 53.72833 -34.14201 29.8789 94.18455 48.58374 23.81729 -9.07565 98.08717 28.51357 -61.37357 115.718 -65.06412 9.38371 8.67386 66.15869 -3.10878 -14.4065 -85.34274 2.09561 -5.4621 -14.20553 71.39369 16.78256 4.57769 -89.43948 8.70001 6.8359 8.17667
0.29088 0.35766 -0.00467 182.85517 0 -7.97656 -4.23661 9.45 -5.60222 -51.32672 7.34508 7.1234 53.94172 -34.3143 29.97766 93.96849 47.75282 23.16726 -9.33689 98.19986 28.08408 -61.23112 115.01964 -70.99621 6.18969 8.94119 66.08965 -3.08226 -14.48847 -85.23268 2.04522 -5.45702 -14.05718 71.44291 16.71654 4.38778 -89.51195 8.73702 6.94307 8.36843
0.2909 0.3577 -0.0038 182.78709 0 -8.17014 -4.15732 9.66208 -5.86684 -51.65201 7.80257 7.86637 54.11686 -34.57304 29.99862 93.87686 46.93849 22.32973 -9.64879 97.99417 27.49248 -61.15004 114.18565 -82.65019 0.54552 9.58446 66.02102 -3.05696 -14.61077 -85.13147 2.00368 -5.45232 -13.92117 71.5213 16.63692 4.14087 -89.59978 8.76127 7.04884 8.55838
0.29091 0.35777 -0.00289 182.70978 0 -8.35136 -4.08001 9.87733 -6.09467 -52.02923 8.22698 8.5506 54.30421 -34.79184 30.06625 93.72896 46.14733 21.54397 -9.94873 97.91038 26.9867 -61.03658 113.42508 -91.45911 -3.84051 10.05875 65.95546 -3.0285 -14.7113 -85.02851 1.95787 -5.44768 -13.78282 71.58684 16.56659 3.92292 -89.6805 8.791 7.15329 8.7459
0.2909 0.35786 -0.00189 182.63418 0 -8.54549 -3.98858 10.12462 -6.29945 -52.4579 8.65979 9.25165 54.51078 -35.01398 30.09124 93.58591 45.33423 20.824 -10.21059 97.90302 26.41839 -60.93015 112.60572 -101.17774 -8.81814 10.5122 65.87596 -3.01091 -14.82618 -84.91535 1.91253 -5.44224 -13.6287 71.65038 16.4822 3.69078 -89.76228 8.82262 7.26725 8.94965
0.29094 0.35787 -0.00112 182.56023 0 -8.71711 -3.92706 10.29937 -6.57307 -52.74614 9.08949 9.94329 54.66718 -35.24777 30.18384 93.45983 44.53205 19.95344 -10.55938 97.66888 25.94759 -60.8277 111.88043 -110.38777 -13.14842 11.09963 65.82535 -2.9717 -14.92104 -84.82574 1.86882 -5.43846 -13.51068 71.7246 16.42408 3.47572 -89.84493 8.84709 7.36066 9.11812
0.29113 0.35765 -0.00094 182.4849 0 -8.826 -3.95059 10.27872 -7.02778 -52.70012 9.5065 10.61145 54.71927 -35.51359 30.4906 93.35203 43.72312 18.68863 -11.14911 96.88113 25.7668 -60.72822 111.44323 -117.04652 -15.15358 12.00995 65.85825 -2.86422 -14.94807 -84.79963 1.82401 -5.43937 -13.49461 71.82751 16.44322 3.31477 -89.93095 8.85461 7.39668 9.19051
0.29135 0.35735 -0.00098 182.41126 0 -8.91069 -4.00354 10.18592 -7.54588 -52.51538 9.91516 11.26019 54.71792 -35.7845 30.86534 93.25565 42.91515 17.29407 -11.82082 95.88007 25.6938 -60.63135 111.10715 -122.97241 -16.42022 13.03563 65.91956 -2.73653 -14.95409 -84.79695 1.78127 -5.4419 -13.51383 71.93913 16.489 3.17433 -90.01644 8.85534 7.412 9.22692
0.29155 0.3571 -0.00093 182.33783 0 -9.0035 -4.04115 10.12643 -8.02628 -52.38368 10.31895 11.89686 54.72586 -36.03936 31.20351 93.15222 42.11211 15.9848 -12.44553 94.98265 25.5863 -60.5302 110.72968 -129.08518 -17.98064 13.98226 65.96547 -2.62326 -14.9714 -84.78314 1.7398 -5.44347 -13.51371 72.04268 16.52199 3.02929 -90.09903 8.85933 7.43732 9.27887
0.29178 0.3568 -0.00088 182.26026 0 -9.10916 -4.08751 10.06368 -8.54829 -52.28977 10.76221 12.62576 54.79706 -36.35483 31.56526 93.06187 41.28808 14.55492 -13.11421 94.04471 25.4153 -60.44304 110.32961 -136.00038 -19.77956 15.05649 66.02196 -2.48742 -14.98254 -84.77142 1.68905 -5.4458 -13.52776 72.16444 16.55794 2.86256 -90.19531 8.8622 7.46036 9.33427
0.29196 0.35658 -0.00086 182.19227 0 -9.18209 -4.12218 9.99121 -8.99643 -52.08517 11.11986 13.15664 54.72259 -36.54462 31.89219 92.94438 40.50854 13.35017 -13.7089 93.14568 25.39993 -60.32786 110.00048 -141.0108 -20.90364 15.88451 66.06304 -2.39445 -15.00132 -84.7611 1.65831 -5.44715 -13.52071 72.25014 16.59352 2.74634 -90.26286 8.86588 7.48293 9.37391
0.29198 0.35661 -0.00087 182.14335 0 -9.16991 -4.12131 9.90718 -9.23339 -51.61597 11.24618 13.14054 54.27279 -36.37898 32.13138 92.75616 39.83561 12.78649 -14.08902 92.40058 25.82823 -60.12312 109.86075 -140.78735 -20.07475 16.02931 66.05578 -2.41885 -15.04336 -84.7462 1.67958 -5.44356 -13.44564 72.23236 16.6279 2.7673 -90.25009 8.87414 7.5119 9.37921
0.29194 0.35671 -0.00091 182.1052 0 -9.12559 -4.10718 9.81662 -9.3916 -51.03837 11.2852 12.92483 53.67503 -36.08585 32.32927 92.53792 39.20894 12.45786 -14.38979 91.70478 26.40387 -59.89126 109.7865 -138.66915 -18.62394 15.91636 66.03188 -2.48804 -15.09403 -84.73236 1.72129 -5.43921 -13.34842 72.17817 16.65993 2.83819 -90.20853 8.88336 7.54063 9.36977
0.29193 0.35678 -0.00093 182.0666 0 -9.09635 -4.09622 9.73044 -9.58025 -50.50806 11.36247 12.80476 53.13721 -35.85751 32.5295 92.32864 38.57243 12.03023 -14.72015 90.99179 26.88504 -59.68002 109.67066 -137.4949 -17.63096 15.90259 66.01474 -2.5408 -15.14272 -84.71978 1.75548 -5.43644 -13.26185 72.14165 16.68885 2.88463 -90.18086 8.89182 7.56776 9.36689
